<?xml version="1.0" encoding="UTF-8" standalone="no"?>
<svg
   version="1.1"
   width="29.95472"
   height="32.880001"
   viewbox="0 0 96 96"
   id="svg1"
   sodipodi:docname="stream-logo-new.svg"
   inkscape:version="1.4.2 (ebf0e94, 2025-05-08)"
   xmlns:inkscape="http://www.inkscape.org/namespaces/inkscape"
   xmlns:sodipodi="http://sodipodi.sourceforge.net/DTD/sodipodi-0.dtd"
   xmlns="http://www.w3.org/2000/svg"
   xmlns:svg="http://www.w3.org/2000/svg">
  <defs
     id="defs1" />
  <sodipodi:namedview
     id="namedview1"
     pagecolor="#ffffff"
     bordercolor="#000000"
     borderopacity="0.25"
     inkscape:showpageshadow="2"
     inkscape:pageopacity="0.0"
     inkscape:pagecheckerboard="0"
     inkscape:deskcolor="#d1d1d1"
     inkscape:zoom="6.1927083"
     inkscape:cx="28.097561"
     inkscape:cy="-0.88814129"
     inkscape:window-width="2560"
     inkscape:window-height="1369"
     inkscape:window-x="1432"
     inkscape:window-y="363"
     inkscape:window-maximized="1"
     inkscape:current-layer="g2" />
  <g
     transform="matrix(-1.0248713,0,0,1,39.49854,30.96)"
     id="g2"
     style="fill:#000000;fill-opacity:1;stroke-width:0.987792">
    <path
       d="m 37.78,-9.74 v 0 q 0.19,0 0.43,0.19 0.24,0.19 0.33,0.43 v 0 q 0,0.34 -0.69,5.35 -0.7,5.02 -0.7,5.07 v 0 q 0,0.33 -0.48,0.57 v 0 Q 36.58,1.92 23.3,1.92 10.03,1.92 9.89,1.82 v 0 Q 9.02,1.49 9.46,0.72 v 0 q 0.14,-0.19 9.16,-14.93 9.03,-14.73 9.22,-15.07 v 0 H 25.1 q -3.4,0.05 -4.7,0.34 v 0 q -3.17,0.57 -5.28,2.32 -2.11,1.76 -2.4,4.11 v 0 q -0.14,0.96 -0.86,0.96 v 0 q -0.58,0 -0.87,-0.72 v 0 l 0.43,-3.99 q 0.44,-3.98 0.53,-4.17 v 0 q 0.15,-0.29 0.43,-0.43 v 0 q 0.15,-0.1 12.08,-0.1 11.92,0 12.07,0.05 v 0 q 0.57,0.29 0.53,0.91 v 0 q -0.1,0.14 -9.22,15.07 Q 18.72,0 18.62,0.14 v 0 l -0.04,0.1 H 22.7 Q 26.78,0.19 27.46,0.1 v 0 q 3.5,-0.53 6.12,-2.93 2.61,-2.4 3.19,-5.76 v 0 q 0.19,-1.15 1.01,-1.15 z M 16.61,0.19 v 0 q 0,0 4.32,-6.96 v 0 q 4.17,-6.86 8.78,-14.4 v 0 q 4.47,-7.39 4.99,-8.11 v 0 h -4.89 l -1.01,1.63 q -0.29,0.43 -9.02,14.74 v 0 l -8.07,13.1 2.45,0.05 q 2.45,0 2.45,-0.05 z M 15.6,-28.99 v 0 l 0.48,-0.29 h -1.3 q -1.34,0 -1.34,0.05 v 0 q 0,1.01 -0.24,1.97 v 0 q 0,0.14 0.38,-0.24 v 0 q 0.05,0 0.15,-0.1 v 0 q 0.81,-0.77 1.87,-1.39 z M 35.62,0.24 v -0.1 q 0,-0.04 0.21,-1.53 0.22,-1.49 0.22,-1.59 v 0 q -0.05,0 -0.05,0.05 0,0.05 -0.79,0.84 -0.79,0.79 -1.13,1.08 v 0 q -0.58,0.48 -1.82,1.25 v 0 z"
       fill="#404040"
       id="path1-4"
       style="fill:#000000;fill-opacity:1;stroke-width:0.987792" />
  </g>
</svg>
